<svg width="52" height="52" viewBox="0 0 52 52" fill="none"
  xmlns="http://www.w3.org/2000/svg">
  <circle cx="26" cy="26" r="26" fill="#E5E5FE" fill-opacity="0.7"/>
  <path d="M37.7957 21.1411C36.3589 14.819 30.8441 11.9727 25.9999 11.9727C25.9999 11.9727 25.9999 11.9727 25.9863 11.9727C21.1557 11.9727 15.6273 14.8053 14.1905 21.1274C12.5894 28.1884 16.9136 34.1684 20.8273 37.9316C22.2778 39.3274 24.1389 40.0253 25.9999 40.0253C27.861 40.0253 29.722 39.3274 31.1589 37.9316C35.0726 34.1684 39.3968 28.2021 37.7957 21.1411ZM25.9999 27.9969C23.6189 27.9969 21.6894 26.0674 21.6894 23.6863C21.6894 21.3053 23.6189 19.3758 25.9999 19.3758C28.381 19.3758 30.3105 21.3053 30.3105 23.6863C30.3105 26.0674 28.381 27.9969 25.9999 27.9969Z" fill="#244EB9"/>
</svg>
