<svg width="30" height="30" viewBox="0 0 30 30" fill="none"
  xmlns="http://www.w3.org/2000/svg">
  <circle cx="15" cy="15" r="15" fill="#E5E5FE" fill-opacity="0.25"/>
  <circle cx="15" cy="15" r="14.5" stroke="#244EB9" stroke-opacity="0.25"/>
  <path d="M15.9906 21.1759V17.2868L14.1757 17.2868L14.1757 21.3055L13.0738 20.2036L11.7774 21.4999L15.0183 24.7408L18.2592 21.4999L16.9629 20.2036L15.9906 21.1759ZM14.1109 8.79559L14.1109 12.6847H15.9258L15.9258 8.79559L16.9629 9.83268L18.2592 8.53632L15.0183 5.29541L11.7774 8.53632L13.0738 9.83268L14.1109 8.79559ZM8.86059 14.0459L9.83286 13.0736L8.5365 11.7772L5.29559 15.0181L8.5365 18.259L9.83286 16.9627L8.73095 15.8608L12.7497 15.8608L12.7497 14.0459L8.86059 14.0459Z" fill="#244EB9"/>
</svg>
