<svg width="30" height="30" viewBox="0 0 30 30" fill="none"
  xmlns="http://www.w3.org/2000/svg">
  <circle cx="15" cy="15" r="15" fill="#E5E5FE" fill-opacity="0.25"/>
  <circle cx="15" cy="15" r="14.5" stroke="#244EB9" stroke-opacity="0.25"/>
  <path d="M14.046 21.1759V17.2868L15.8609 17.2868L15.8609 21.3055L16.9629 20.2036L18.2592 21.4999L15.0183 24.7408L11.7774 21.4999L13.0738 20.2036L14.046 21.1759ZM15.9258 8.79559L15.9258 12.6847H14.1109L14.1109 8.79559L13.0738 9.83268L11.7774 8.53632L15.0183 5.29541L18.2592 8.53632L16.9629 9.83268L15.9258 8.79559ZM21.176 14.0459L20.2038 13.0736L21.5001 11.7772L24.741 15.0181L21.5001 18.259L20.2038 16.9627L21.3057 15.8608L17.2869 15.8608L17.2869 14.0459L21.176 14.0459Z" fill="#244EB9"/>
</svg>
