<svg width="30" height="30" viewBox="0 0 30 30" fill="none"
  xmlns="http://www.w3.org/2000/svg">
  <circle cx="15" cy="15" r="15" fill="#E5E5FE" fill-opacity="0.25"/>
  <circle cx="15" cy="15" r="14.5" stroke="#244EB9" stroke-opacity="0.25"/>
  <path d="M16.3676 22.3611C16.3676 22.7139 16.0816 23 15.7287 23H13.8121C13.4593 23 13.1733 22.7139 13.1733 22.3611V20.4445C13.1733 20.0916 13.4593 19.8056 13.8121 19.8056H15.7287C16.0816 19.8056 16.3676 20.0916 16.3676 20.4445V22.3611ZM19.5344 13.5671C19.2776 13.9333 18.6948 14.3998 17.9651 14.9687L17.1564 15.5267C16.7636 15.8314 16.4153 16.1861 16.2865 16.5921C16.2425 16.7305 16.2095 16.9579 16.1873 17.2034C16.1761 17.327 16.0656 17.5791 15.8072 17.5791C15.1741 17.5791 13.9675 17.5791 13.7274 17.5791C13.3893 17.5791 13.3289 17.3143 13.3346 17.1848C13.372 16.3359 13.4498 15.5823 13.7957 15.1765C14.4959 14.3555 16.0893 13.3335 16.0893 13.3335C16.3319 13.1505 16.5283 12.9515 16.6768 12.7346C16.9468 12.3623 17.1708 11.9534 17.1708 11.5064C17.1708 10.9927 17.0206 10.5245 16.7193 10.1006C16.419 9.67846 15.8688 9.46696 15.0717 9.46696C14.287 9.46696 13.7307 9.72741 13.4028 10.2481C13.1606 10.6328 13.0081 10.9865 12.945 11.3713C12.9225 11.5075 12.8352 11.7944 12.544 11.7944C11.9289 11.7944 10.7948 11.7944 10.5156 11.7944C10.0837 11.7944 9.98856 11.5145 10.001 11.3796C10.1574 9.67919 10.8219 8.51738 11.9968 7.77138C12.7957 7.25775 13.7786 7 14.9446 7C16.4766 7 17.7483 7.3652 18.7622 8.09666C19.7743 8.82712 20.2818 9.90949 20.2818 11.3446C20.2819 12.2235 19.9734 12.9647 19.5344 13.5671Z" fill="#244EB9"/>
</svg>
