<svg width="30" height="30" viewBox="0 0 30 30" fill="none"
  xmlns="http://www.w3.org/2000/svg">
  <circle cx="15" cy="15" r="15" fill="#E5E5FE" fill-opacity="0.25"/>
  <circle cx="15" cy="15" r="14.5" stroke="#244EB9" stroke-opacity="0.25"/>
  <path d="M8.79577 15.9256L9.83286 16.9627L8.5365 18.259L5.29559 15.0181L8.5365 11.7772L9.83286 13.0736L8.79577 14.1107L12.6849 14.1107L12.6849 15.9256L8.79577 15.9256ZM14.046 21.1759V17.2868L15.8609 17.2868L15.8609 21.3055L16.9629 20.2036L18.2592 21.4999L15.0183 24.7408L11.7774 21.4999L13.0738 20.2036L14.046 21.1759ZM21.176 14.0459L20.2038 13.0736L21.5001 11.7772L24.741 15.0181L21.5001 18.259L20.2038 16.9627L21.3057 15.8608L17.2869 15.8608L17.2869 14.0459L21.176 14.0459Z" fill="#244EB9"/>
</svg>
