<svg width="30" height="30" viewBox="0 0 30 30" fill="none"
  xmlns="http://www.w3.org/2000/svg">
  <circle cx="15" cy="15" r="15" fill="#E5E5FE" fill-opacity="0.25"/>
  <circle cx="15" cy="15" r="14.5" stroke="#244EB9" stroke-opacity="0.25"/>
  <path d="M8.79577 14.1106L9.83286 13.0735L8.5365 11.7771L5.29559 15.018L8.5365 18.2589L9.83286 16.9625L8.79577 15.9255L12.6849 15.9255L12.6849 14.1106L8.79577 14.1106ZM14.046 8.86028V12.7494L15.8609 12.7494L15.8609 8.73065L16.9629 9.83255L18.2592 8.53619L15.0183 5.29529L11.7774 8.53619L13.0738 9.83255L14.046 8.86028ZM21.176 15.9903L20.2038 16.9625L21.5001 18.2589L24.741 15.018L21.5001 11.7771L20.2038 13.0735L21.3057 14.1754L17.2869 14.1754L17.2869 15.9903L21.176 15.9903Z" fill="#244EB9"/>
</svg>
